<?xml version="1.0" encoding="UTF-8"?> <svg xmlns="http://www.w3.org/2000/svg" width="15" height="15" viewBox="0 0 15 15" fill="none"><path d="M7.4354 1.23901C10.8573 1.23901 13.631 4.0128 13.631 7.43466C13.631 10.8565 10.8573 13.6303 7.4354 13.6303C6.34048 13.6322 5.26481 13.3424 4.31899 12.7908L1.24223 13.6303L2.07989 10.5523C1.52783 9.60619 1.23784 8.53006 1.23976 7.43466C1.23976 4.0128 4.01355 1.23901 7.4354 1.23901ZM5.32393 4.52271L5.20001 4.52766C5.1199 4.53318 5.04162 4.55423 4.96953 4.58962C4.90236 4.62773 4.84101 4.6753 4.78738 4.73088C4.71304 4.80089 4.6709 4.86161 4.62568 4.92047C4.39651 5.21842 4.27313 5.58421 4.275 5.9601C4.27624 6.26368 4.35555 6.55922 4.47946 6.83554C4.73286 7.39439 5.14983 7.98607 5.7 8.53439C5.83259 8.66635 5.9627 8.79894 6.10272 8.92223C6.78637 9.52408 7.601 9.95813 8.48185 10.1899L8.83376 10.2438C8.94838 10.25 9.063 10.2413 9.17824 10.2357C9.35865 10.2262 9.53479 10.1774 9.69434 10.0926C9.7754 10.0507 9.85458 10.0052 9.93163 9.95629C9.93163 9.95629 9.95786 9.93853 10.0091 9.90053C10.0927 9.83857 10.1441 9.79458 10.2135 9.72209C10.2656 9.6684 10.3089 9.60603 10.3436 9.53498C10.392 9.434 10.4403 9.24131 10.4601 9.08084C10.475 8.95817 10.4706 8.89126 10.4688 8.84975C10.4663 8.78345 10.4112 8.71468 10.3511 8.68556L9.99049 8.52386C9.99049 8.52386 9.45147 8.28904 9.12186 8.13911C9.08735 8.12409 9.0504 8.11548 9.01281 8.1137C8.97042 8.10927 8.92757 8.114 8.88716 8.12757C8.84675 8.14115 8.80974 8.16325 8.77862 8.19239C8.77552 8.19115 8.73401 8.22646 8.28606 8.7692C8.26035 8.80375 8.22494 8.82986 8.18433 8.8442C8.14373 8.85855 8.09977 8.86048 8.05806 8.84975C8.01769 8.83898 7.97814 8.82532 7.93973 8.80885C7.8629 8.77664 7.83626 8.76425 7.7836 8.74194C7.42789 8.58699 7.09863 8.37731 6.80778 8.12052C6.72972 8.05237 6.65723 7.97802 6.58288 7.90615C6.33915 7.6727 6.12673 7.40863 5.95092 7.12054L5.91437 7.06168C5.88851 7.0219 5.86731 6.97929 5.85118 6.93467C5.82763 6.8436 5.88897 6.77049 5.88897 6.77049C5.88897 6.77049 6.03952 6.60568 6.10953 6.51647C6.17769 6.42973 6.23531 6.34547 6.27248 6.28537C6.34559 6.16765 6.36851 6.04684 6.3301 5.95328C6.15662 5.5295 5.97736 5.10799 5.79232 4.68875C5.75576 4.60573 5.64734 4.54625 5.54883 4.53448C5.51537 4.53035 5.48191 4.52704 5.44846 4.52457C5.36527 4.51979 5.28185 4.52062 5.19877 4.52704L5.32393 4.52271Z" fill="white"></path></svg> 