<?xml version="1.0" encoding="UTF-8"?> <svg xmlns="http://www.w3.org/2000/svg" width="12" height="12" viewBox="0 0 12 12" fill="none"><path d="M1.15674 1.73475C1.15674 1.41539 1.41563 1.15649 1.735 1.15649H2.97992C3.2626 1.15649 3.50384 1.36086 3.55031 1.63969L3.97783 4.20478C4.01956 4.45518 3.8931 4.70353 3.66604 4.81706L2.77081 5.26467C3.41632 6.86874 4.69666 8.14907 6.30073 8.79459L6.74834 7.89936C6.86187 7.6723 7.11021 7.54584 7.36062 7.58757L9.92571 8.01509C10.2045 8.06156 10.4089 8.3028 10.4089 8.58548V9.8304C10.4089 10.1498 10.15 10.4087 9.83064 10.4087H8.67412C4.52239 10.4087 1.15674 7.04301 1.15674 2.89128V1.73475Z" fill="white"></path></svg> 