<?xml version="1.0" encoding="UTF-8"?> <svg xmlns="http://www.w3.org/2000/svg" width="901" height="229" viewBox="0 0 901 229" fill="none"><path d="M900.982 228.135V214.734V13.401V0H887.581H845.039V13.401H887.581V214.734H845.039V228.135H887.581H900.982ZM784.746 71.7919H815.293V57.1441H737.85V71.7919H769.471V170.991H784.746V71.7919ZM728.426 171.018L699.776 125.209C706.174 122.165 710.925 117.706 714.024 111.826C717.118 105.952 718.665 99.4948 718.665 92.4644C718.665 85.0154 716.936 78.6357 713.473 73.339C710.006 68.0378 705.232 64.0243 699.144 61.2941C693.06 58.5638 686.13 57.1987 678.367 57.1987H647.984V171.018H663.255V129.145H680.096C681.775 129.145 683.035 129.091 683.877 128.986L710.638 171.018H728.426ZM697.492 107.89C693.87 112.195 687.968 114.347 679.782 114.347H663.255V71.8419H680.883C685.92 71.8419 690.093 72.9204 693.401 75.0682C696.705 77.2205 699.117 79.9235 700.641 83.177C702.161 86.4306 702.925 89.7342 702.925 93.0924C702.925 98.6575 701.114 103.59 697.492 107.89ZM618.046 143.279C623.293 134.356 625.919 124.645 625.919 114.147C625.919 103.754 623.266 94.098 617.964 85.1747C612.663 76.2558 605.551 69.139 596.632 63.8378C587.704 58.5411 578.048 55.8836 567.655 55.8836C557.157 55.8836 547.474 58.5411 538.605 63.8378C529.732 69.139 522.674 76.2558 517.428 85.1747C512.176 94.098 509.551 103.754 509.551 114.147C509.551 124.854 512.149 134.642 517.346 143.516C522.542 152.389 529.6 159.392 538.528 164.534C547.447 169.68 557.157 172.251 567.655 172.251C578.048 172.251 587.732 169.653 596.709 164.457C605.683 159.26 612.795 152.202 618.046 143.279ZM610.17 114.147C610.17 122.019 608.304 129.291 604.582 135.957C600.855 142.624 595.763 147.87 589.306 151.702C582.854 155.538 575.737 157.449 567.974 157.449C560.202 157.449 553.035 155.506 546.477 151.624C539.916 147.743 534.747 142.492 530.97 135.875C527.188 129.264 525.3 122.074 525.3 114.306C525.3 106.43 527.161 99.1353 530.888 92.4189C534.615 85.7025 539.729 80.3694 546.241 76.4333C552.748 72.4972 559.888 70.5314 567.655 70.5314C575.423 70.5314 582.562 72.4744 589.069 76.356C595.576 80.242 600.723 85.5432 604.504 92.2596C608.281 98.9806 610.17 106.275 610.17 114.147ZM489.174 110.37C491.745 104.805 493.033 98.8213 493.033 92.4189C493.033 81.2931 489.538 72.6337 482.562 66.4361C475.577 60.2429 465.894 57.1441 453.508 57.1441H419.239V170.991H434.515V129.104H455.082C463.792 129.104 471.013 127.375 476.733 123.908C482.453 120.445 486.599 115.935 489.174 110.37ZM477.916 92.7329C477.916 95.8818 477.179 99.108 475.709 102.416C474.24 105.724 471.796 108.532 468.388 110.839C464.975 113.151 460.538 114.306 455.082 114.306H434.515V71.7919H455.87C463.428 71.7919 468.988 73.9169 472.561 78.167C476.128 82.4171 477.916 87.2769 477.916 92.7329ZM357.931 133.045L400.6 57.1441H381.866L350.687 115.722L319.353 57.1441H300.455L342.655 133.045V170.991H357.931V133.045ZM292.897 117.787C292.969 116.573 293.129 115.385 293.129 114.147C293.129 103.754 290.476 94.098 285.179 85.1747C279.878 76.2558 272.761 69.139 263.842 63.8378C254.919 58.5411 245.258 55.8836 234.87 55.8836C224.367 55.8836 214.684 58.5411 205.815 63.8378C196.942 69.139 189.884 76.2558 184.638 85.1747C179.386 94.098 176.765 103.754 176.765 114.147C176.765 115.389 176.92 116.573 176.988 117.787H186.162H192.724H277.161H280.638H292.897ZM275.796 102.257H194.125C195.053 98.8532 196.35 95.5678 198.098 92.4189C201.825 85.7025 206.939 80.3694 213.451 76.4333C219.963 72.4972 227.098 70.5314 234.87 70.5314C242.637 70.5314 249.772 72.4744 256.284 76.356C262.791 80.242 267.933 85.5432 271.714 92.2596C273.512 95.4586 274.854 98.7986 275.796 102.257ZM170.531 170.991L120.773 105.961L167.851 57.1441H148.171L101.561 105.642L100.127 107.08L100.146 102.967V57.1441H84.5558V170.991H100.146L99.9863 125.014L109.592 115.722L151.16 170.991H170.531ZM13.401 228.135H55.9428V214.734H13.401V13.401H55.9428V0H13.401H0V13.401V214.734V228.135H13.401ZM195.104 128.872L181.097 136.38C182.099 138.819 183.254 141.204 184.615 143.516C189.807 152.384 196.869 159.392 205.793 164.534C214.711 169.68 224.426 172.251 234.924 172.251C245.317 172.251 255.001 169.653 263.974 164.457C272.952 159.26 280.06 152.202 285.311 143.279C286.644 141.008 287.8 138.692 288.797 136.321L274.932 128.89C274.094 131.307 273.116 133.682 271.846 135.957C268.12 142.624 263.028 147.87 256.575 151.702C250.118 155.533 243.006 157.449 235.238 157.449C227.466 157.449 220.304 155.506 213.742 151.624C207.185 147.738 202.011 142.492 198.234 135.875C196.942 133.618 195.955 131.266 195.104 128.872Z" fill="black"></path></svg> 